# xmcd
#
# Track frame offsets: 
#        150
#        13725
#        23775
#        39600
#        52575
#        65299
#        78257
#        89908
#        101362
#        110956
#
# Disc length: 1609 seconds
#
# Revision: 0
# Processed by: cddbd v1.5.2PL0 Copyright (c) Steve Scherf et al.
# Submitted via: ExactAudioCopy v1.3
#
DISCID=7906470a
DTITLE=Red Sovine and The Girls - CD3_It'll Come Back
DYEAR=2008
DGENRE=Country
TTITLE0=It'll Come Back
TTITLE1=Love Makes The Grass Grow Green
TTITLE2=Daddy's Girl
TTITLE3=Sunshine Man
TTITLE4=Daisy's Chain
TTITLE5=Can I Keep Him Daddy
TTITLE6=Sugar Tree
TTITLE7=I Love You More
TTITLE8=Everybody Sing A Song
TTITLE9=Red's So Fine
EXTD=
EXTT0=
EXTT1=
EXTT2=
EXTT3=
EXTT4=
EXTT5=
EXTT6=
EXTT7=
EXTT8=
EXTT9=
PLAYORDER=
